<?xml version="1.0" encoding="UTF-8" standalone="no"?>
<!DOCTYPE svg PUBLIC "-//W3C//DTD SVG 1.1//EN" "http://www.w3.org/Graphics/SVG/1.1/DTD/svg11.dtd">
<svg width="100%" height="100%" viewBox="0 0 725 122" version="1.1" xmlns="http://www.w3.org/2000/svg" xmlns:xlink="http://www.w3.org/1999/xlink" xml:space="preserve" xmlns:serif="http://www.serif.com/" style="fill-rule:evenodd;clip-rule:evenodd;stroke-linejoin:round;stroke-miterlimit:2;">
    <g transform="matrix(1,0,0,1,-686.383,-658.966)">
        <g id="LogoFull">
            <g>
                <g id="Logo">
                    <g transform="matrix(-1.23269,0,0,1.2144,1797.63,-187.541)">
                        <path d="M853.999,796.133L894.491,796.133C896.982,796.133 899.285,794.787 900.535,792.601C901.786,790.414 901.796,787.717 900.56,785.521C890.082,766.894 868.454,728.445 857.468,708.917C856.091,706.468 853.527,704.957 850.75,704.957C847.972,704.957 845.408,706.468 844.031,708.917L824.484,743.665L853.999,796.133Z" style="fill:rgb(115,151,229);"/>
                    </g>
                    <g transform="matrix(1.23269,0,0,1.2144,-240.719,-186.667)">
                        <path d="M844.031,708.917C845.408,706.468 847.972,704.957 850.75,704.957C853.527,704.957 856.091,706.468 857.468,708.917C868.454,728.445 890.082,766.894 900.56,785.521C901.796,787.717 901.786,790.414 900.535,792.601C899.285,794.787 896.982,796.133 894.491,796.133C865.648,796.133 794.969,796.133 794.969,796.133C794.969,796.133 829.2,735.281 844.031,708.917Z" style="fill:white;"/>
                    </g>
                    <g transform="matrix(1.23269,0,0,1.2144,-235.093,-187.44)">
                        <path d="M844.031,708.917C845.408,706.468 847.972,704.957 850.75,704.957C853.527,704.957 856.091,706.468 857.468,708.917C868.454,728.445 890.082,766.894 900.56,785.521C901.796,787.717 901.786,790.414 900.535,792.601C899.285,794.787 896.982,796.133 894.491,796.133C865.648,796.133 794.969,796.133 794.969,796.133C794.969,796.133 829.2,735.281 844.031,708.917Z" style="fill:rgb(66,114,219);"/>
                    </g>
                </g>
                <g transform="matrix(3.25324,0,0,3.20651,684.019,638.234)">
                    <path d="M84.64,21.84L88.48,21.84L92.26,31.76L96.08,21.84L99.88,21.84L99.88,36L97.48,36L97.48,24.24L97.44,24.24L93.14,36L91.38,36L87.08,24.24L87.04,24.24L87.04,36L84.64,36L84.64,21.84ZM102.396,31.2C102.396,30.44 102.529,29.753 102.796,29.14C103.076,28.513 103.449,27.98 103.916,27.54C104.382,27.1 104.936,26.76 105.576,26.52C106.216,26.28 106.896,26.16 107.616,26.16C108.336,26.16 109.016,26.28 109.656,26.52C110.296,26.76 110.849,27.1 111.316,27.54C111.782,27.98 112.149,28.513 112.416,29.14C112.696,29.753 112.836,30.44 112.836,31.2C112.836,31.96 112.696,32.653 112.416,33.28C112.149,33.893 111.782,34.42 111.316,34.86C110.849,35.3 110.296,35.64 109.656,35.88C109.016,36.12 108.336,36.24 107.616,36.24C106.896,36.24 106.216,36.12 105.576,35.88C104.936,35.64 104.382,35.3 103.916,34.86C103.449,34.42 103.076,33.893 102.796,33.28C102.529,32.653 102.396,31.96 102.396,31.2ZM104.796,31.2C104.796,31.573 104.856,31.933 104.976,32.28C105.109,32.627 105.296,32.933 105.536,33.2C105.789,33.467 106.089,33.68 106.436,33.84C106.782,34 107.176,34.08 107.616,34.08C108.056,34.08 108.449,34 108.796,33.84C109.142,33.68 109.436,33.467 109.676,33.2C109.929,32.933 110.116,32.627 110.236,32.28C110.369,31.933 110.436,31.573 110.436,31.2C110.436,30.827 110.369,30.467 110.236,30.12C110.116,29.773 109.929,29.467 109.676,29.2C109.436,28.933 109.142,28.72 108.796,28.56C108.449,28.4 108.056,28.32 107.616,28.32C107.176,28.32 106.782,28.4 106.436,28.56C106.089,28.72 105.789,28.933 105.536,29.2C105.296,29.467 105.109,29.773 104.976,30.12C104.856,30.467 104.796,30.827 104.796,31.2ZM122.683,34.56L122.643,34.56C122.296,35.147 121.829,35.573 121.243,35.84C120.656,36.107 120.023,36.24 119.343,36.24C118.596,36.24 117.929,36.113 117.343,35.86C116.769,35.593 116.276,35.233 115.863,34.78C115.449,34.327 115.136,33.793 114.923,33.18C114.709,32.567 114.603,31.907 114.603,31.2C114.603,30.493 114.716,29.833 114.943,29.22C115.169,28.607 115.483,28.073 115.883,27.62C116.296,27.167 116.789,26.813 117.363,26.56C117.936,26.293 118.563,26.16 119.243,26.16C119.696,26.16 120.096,26.207 120.443,26.3C120.789,26.393 121.096,26.513 121.363,26.66C121.629,26.807 121.856,26.967 122.043,27.14C122.229,27.3 122.383,27.46 122.503,27.62L122.563,27.62L122.563,20.88L124.963,20.88L124.963,36L122.683,36L122.683,34.56ZM117.003,31.2C117.003,31.573 117.063,31.933 117.183,32.28C117.316,32.627 117.503,32.933 117.743,33.2C117.996,33.467 118.296,33.68 118.643,33.84C118.989,34 119.383,34.08 119.823,34.08C120.263,34.08 120.656,34 121.003,33.84C121.349,33.68 121.643,33.467 121.883,33.2C122.136,32.933 122.323,32.627 122.443,32.28C122.576,31.933 122.643,31.573 122.643,31.2C122.643,30.827 122.576,30.467 122.443,30.12C122.323,29.773 122.136,29.467 121.883,29.2C121.643,28.933 121.349,28.72 121.003,28.56C120.656,28.4 120.263,28.32 119.823,28.32C119.383,28.32 118.989,28.4 118.643,28.56C118.296,28.72 117.996,28.933 117.743,29.2C117.503,29.467 117.316,29.773 117.183,30.12C117.063,30.467 117.003,30.827 117.003,31.2ZM129.6,32.04C129.68,32.76 129.96,33.32 130.44,33.72C130.92,34.12 131.5,34.32 132.18,34.32C132.78,34.32 133.28,34.2 133.68,33.96C134.094,33.707 134.454,33.393 134.76,33.02L136.48,34.32C135.92,35.013 135.294,35.507 134.6,35.8C133.907,36.093 133.18,36.24 132.42,36.24C131.7,36.24 131.02,36.12 130.38,35.88C129.74,35.64 129.187,35.3 128.72,34.86C128.254,34.42 127.88,33.893 127.6,33.28C127.334,32.653 127.2,31.96 127.2,31.2C127.2,30.44 127.334,29.753 127.6,29.14C127.88,28.513 128.254,27.98 128.72,27.54C129.187,27.1 129.74,26.76 130.38,26.52C131.02,26.28 131.7,26.16 132.42,26.16C133.087,26.16 133.694,26.28 134.24,26.52C134.8,26.747 135.274,27.08 135.66,27.52C136.06,27.96 136.367,28.507 136.58,29.16C136.807,29.8 136.92,30.54 136.92,31.38L136.92,32.04L129.6,32.04ZM134.52,30.24C134.507,29.533 134.287,28.98 133.86,28.58C133.434,28.167 132.84,27.96 132.08,27.96C131.36,27.96 130.787,28.167 130.36,28.58C129.947,28.993 129.694,29.547 129.6,30.24L134.52,30.24ZM139.165,26.4L141.565,26.4L141.565,27.92L141.605,27.92C141.871,27.36 142.251,26.927 142.745,26.62C143.238,26.313 143.805,26.16 144.445,26.16C144.591,26.16 144.731,26.173 144.865,26.2C145.011,26.227 145.158,26.26 145.305,26.3L145.305,28.62C145.105,28.567 144.905,28.527 144.705,28.5C144.518,28.46 144.331,28.44 144.145,28.44C143.585,28.44 143.131,28.547 142.785,28.76C142.451,28.96 142.191,29.193 142.005,29.46C141.831,29.727 141.711,29.993 141.645,30.26C141.591,30.527 141.565,30.727 141.565,30.86L141.565,36L139.165,36L139.165,26.4ZM147.29,26.4L149.57,26.4L149.57,27.94L149.61,27.94C149.836,27.46 150.183,27.047 150.65,26.7C151.116,26.34 151.75,26.16 152.55,26.16C153.19,26.16 153.73,26.267 154.17,26.48C154.623,26.693 154.99,26.973 155.27,27.32C155.55,27.667 155.75,28.067 155.87,28.52C155.99,28.973 156.05,29.447 156.05,29.94L156.05,36L153.65,36L153.65,31.14C153.65,30.873 153.636,30.58 153.61,30.26C153.583,29.927 153.51,29.62 153.39,29.34C153.283,29.047 153.11,28.807 152.87,28.62C152.63,28.42 152.303,28.32 151.89,28.32C151.49,28.32 151.15,28.387 150.87,28.52C150.603,28.653 150.376,28.833 150.19,29.06C150.016,29.287 149.89,29.547 149.81,29.84C149.73,30.133 149.69,30.44 149.69,30.76L149.69,36L147.29,36L147.29,26.4ZM164.912,21.84L167.432,21.84L167.432,27.48L174.052,27.48L174.052,21.84L176.572,21.84L176.572,36L174.052,36L174.052,29.76L167.432,29.76L167.432,36L164.912,36L164.912,21.84ZM181.436,32.04C181.516,32.76 181.796,33.32 182.276,33.72C182.756,34.12 183.336,34.32 184.016,34.32C184.616,34.32 185.116,34.2 185.516,33.96C185.93,33.707 186.29,33.393 186.596,33.02L188.316,34.32C187.756,35.013 187.13,35.507 186.436,35.8C185.743,36.093 185.016,36.24 184.256,36.24C183.536,36.24 182.856,36.12 182.216,35.88C181.576,35.64 181.023,35.3 180.556,34.86C180.09,34.42 179.716,33.893 179.436,33.28C179.17,32.653 179.036,31.96 179.036,31.2C179.036,30.44 179.17,29.753 179.436,29.14C179.716,28.513 180.09,27.98 180.556,27.54C181.023,27.1 181.576,26.76 182.216,26.52C182.856,26.28 183.536,26.16 184.256,26.16C184.923,26.16 185.53,26.28 186.076,26.52C186.636,26.747 187.11,27.08 187.496,27.52C187.896,27.96 188.203,28.507 188.416,29.16C188.643,29.8 188.756,30.54 188.756,31.38L188.756,32.04L181.436,32.04ZM186.356,30.24C186.343,29.533 186.123,28.98 185.696,28.58C185.27,28.167 184.676,27.96 183.916,27.96C183.196,27.96 182.623,28.167 182.196,28.58C181.783,28.993 181.53,29.547 181.436,30.24L186.356,30.24ZM197.001,34.68L196.941,34.68C196.594,35.227 196.154,35.627 195.621,35.88C195.087,36.12 194.501,36.24 193.861,36.24C193.421,36.24 192.987,36.18 192.561,36.06C192.147,35.94 191.774,35.76 191.441,35.52C191.121,35.28 190.861,34.98 190.661,34.62C190.461,34.26 190.361,33.84 190.361,33.36C190.361,32.84 190.454,32.4 190.641,32.04C190.827,31.667 191.074,31.36 191.381,31.12C191.701,30.867 192.067,30.667 192.481,30.52C192.894,30.373 193.321,30.267 193.761,30.2C194.214,30.12 194.667,30.073 195.121,30.06C195.574,30.033 196.001,30.02 196.401,30.02L197.001,30.02L197.001,29.76C197.001,29.16 196.794,28.713 196.381,28.42C195.967,28.113 195.441,27.96 194.801,27.96C194.294,27.96 193.821,28.053 193.381,28.24C192.941,28.413 192.561,28.653 192.241,28.96L190.981,27.7C191.514,27.153 192.134,26.76 192.841,26.52C193.561,26.28 194.301,26.16 195.061,26.16C195.741,26.16 196.314,26.24 196.781,26.4C197.247,26.547 197.634,26.74 197.941,26.98C198.247,27.22 198.481,27.5 198.641,27.82C198.814,28.127 198.934,28.44 199.001,28.76C199.081,29.08 199.127,29.393 199.141,29.7C199.154,29.993 199.161,30.253 199.161,30.48L199.161,36L197.001,36L197.001,34.68ZM196.861,31.7L196.361,31.7C196.027,31.7 195.654,31.713 195.241,31.74C194.827,31.767 194.434,31.833 194.061,31.94C193.701,32.033 193.394,32.18 193.141,32.38C192.887,32.567 192.761,32.833 192.761,33.18C192.761,33.407 192.807,33.6 192.901,33.76C193.007,33.907 193.141,34.033 193.301,34.14C193.461,34.247 193.641,34.327 193.841,34.38C194.041,34.42 194.241,34.44 194.441,34.44C195.267,34.44 195.874,34.247 196.261,33.86C196.661,33.46 196.861,32.92 196.861,32.24L196.861,31.7ZM201.783,20.88L204.183,20.88L204.183,36L201.783,36L201.783,20.88ZM205.838,28.44L205.838,26.4L207.818,26.4L207.818,23.62L210.218,23.62L210.218,26.4L212.858,26.4L212.858,28.44L210.218,28.44L210.218,32.64C210.218,33.12 210.304,33.5 210.478,33.78C210.664,34.06 211.024,34.2 211.558,34.2C211.771,34.2 212.004,34.18 212.258,34.14C212.511,34.087 212.711,34.007 212.858,33.9L212.858,35.92C212.604,36.04 212.291,36.12 211.918,36.16C211.558,36.213 211.238,36.24 210.958,36.24C210.318,36.24 209.791,36.167 209.378,36.02C208.978,35.887 208.658,35.68 208.418,35.4C208.191,35.107 208.031,34.747 207.938,34.32C207.858,33.893 207.818,33.4 207.818,32.84L207.818,28.44L205.838,28.44ZM217.151,27.74L217.191,27.74C217.377,27.34 217.704,26.98 218.171,26.66C218.651,26.327 219.264,26.16 220.011,26.16C220.651,26.16 221.191,26.267 221.631,26.48C222.084,26.693 222.451,26.973 222.731,27.32C223.011,27.667 223.211,28.067 223.331,28.52C223.451,28.973 223.511,29.447 223.511,29.94L223.511,36L221.111,36L221.111,31.14C221.111,30.873 221.097,30.58 221.071,30.26C221.044,29.927 220.971,29.62 220.851,29.34C220.744,29.047 220.571,28.807 220.331,28.62C220.091,28.42 219.764,28.32 219.351,28.32C218.951,28.32 218.611,28.387 218.331,28.52C218.064,28.653 217.837,28.833 217.651,29.06C217.477,29.287 217.351,29.547 217.271,29.84C217.191,30.133 217.151,30.44 217.151,30.76L217.151,36L214.751,36L214.751,20.88L217.151,20.88L217.151,27.74Z" style="fill:rgb(28,75,129);fill-rule:nonzero;"/>
                </g>
            </g>
        </g>
    </g>
</svg>
